# xmcd
#
# Track frame offsets:
# 150
# 14948
# 29240
# 47080
# 65385
# 83010
# 104423
# 114763
# 125303
# 137923
# 150995
# 164060
# 176450
# 206278
# 221285
# 230755
# 244665
# 257640
# 272858
# 287295
#
# Disc length: 4001 seconds
#
# Revision: 0
# Processed by: cddbd v1.5.1PL0 Copyright (c) Steve Scherf et al.
# Submitted via: Audion 3.0.2 (http://www.panic.com/audion/)
#
DISCID=1b0f9f14
DTITLE=Various Artist - Hajimete no Blues Vol. 3 - Midnight Side
DYEAR=1900
DGENRE=
TTITLE0=Third Degree/Eddie Boyd
TTITLE1=Reconsider Baby/Lowell Fulson
TTITLE2=The Red Rooster/Howlin' Wolf
TTITLE3=Standin' Round Cryin'/Muddy Waters
TTITLE4=My Babe/Bo Diddley, Muddy Waters, Little Walter
TTITLE5=Since I Met You Baby/B.B. King and Katie Webster
TTITLE6=One Sunny Day/Lonnie Brooks
TTITLE7=Nervous Boogie/Paul Gayten
TTITLE8=That's All Right/Jimmy Rogers
TTITLE9=Let Me Love You Baby/Buddy Guy
TTITLE10=Won't Be Hangin' Around/Albert King
TTITLE11=Texas Flood/Larry Davis
TTITLE12=Up and Down/Robert Cray Band
TTITLE13=Ramblin' by Myself/John Lee Hooker
TTITLE14=Cousin Peaches/Jimmy Reed
TTITLE15=When I am Gone/Joe Hill Lewis
TTITLE16=Pretty Girls Everywhere/Otis Spann
TTITLE17=Cross My Heart/Sonny Boy Williamson
TTITLE18=Cross My Heart/Clarence "Gatemouth" Brown
TTITLE19=Last Night/Bobby "Blue" Bland
EXTD=
EXTT0=
EXTT1=
EXTT2=
EXTT3=
EXTT4=
EXTT5=
EXTT6=
EXTT7=
EXTT8=
EXTT9=
EXTT10=
EXTT11=
EXTT12=
EXTT13=
EXTT14=
EXTT15=
EXTT16=
EXTT17=
EXTT18=
EXTT19=
PLAYORDER=
